<svg xmlns="http://www.w3.org/2000/svg" viewBox="0 0 512 512">
  <defs>
    <linearGradient id="bg" x1="0" y1="0" x2="1" y2="1">
      <stop offset="0%" stop-color="#6C63FF"/>
      <stop offset="100%" stop-color="#4FC3F7"/>
    </linearGradient>
  </defs>
  <rect width="512" height="512" rx="112" fill="url(#bg)"/>
  <g transform="translate(256,256)">
    <!-- Chat bubble = AI chat app -->
    <path d="M-100,-80 L100,-80 C130,-80 140,-50 140,-20 L140,40 C140,70 130,100 100,100 L20,100 L-40,150 L-30,100 L-100,100 C-130,100 -140,70 -140,40 L-140,-20 C-140,-50 -130,-80 -100,-80 Z"
          fill="none" stroke="#fff" stroke-width="22" stroke-linejoin="round"/>
    <!-- K inside the bubble -->
    <line x1="-60" y1="-40" x2="-60" y2="50" stroke="#fff" stroke-width="20" stroke-linecap="round"/>
    <line x1="-50" y1="0" x2="60" y2="-40" stroke="#fff" stroke-width="20" stroke-linecap="round"/>
    <line x1="-50" y1="0" x2="60" y2="50" stroke="#fff" stroke-width="20" stroke-linecap="round"/>
  </g>
</svg>
